HIERARCHY
ROOT Hips
{
    OFFSET   0.000000   0.000000   0.000000
    CHANNELS 6 Xposition Yposition Zposition Zrotation Xrotation Yrotation
    JOINT Chest
    {
        OFFSET   0.000000   8.007230   0.000000
        CHANNELS 3 Zrotation Xrotation Yrotation
        JOINT Chest2
        {
            OFFSET   0.000000  22.077100   0.000000
            CHANNELS 3 Zrotation Xrotation Yrotation
            JOINT Neck
            {
                OFFSET   0.000000  23.254700   0.000000
                CHANNELS 3 Zrotation Xrotation Yrotation
                JOINT Head
                {
                    OFFSET   0.000010  14.370000   1.956610
                    CHANNELS 3 Zrotation Xrotation Yrotation
                    End Site
                    {
                        OFFSET   0.000000  19.566000   0.000000
                    }
                }
            }
            JOINT LeftCollar
            {
                OFFSET   3.911900  19.017000  -0.467063
                CHANNELS 3 Zrotation Xrotation Yrotation
                JOINT LeftShoulder
                {
                    OFFSET  10.383700   0.000000   0.000000
                    CHANNELS 3 Zrotation Xrotation Yrotation
                    JOINT LeftElbow
                    {
                        OFFSET  26.662100   0.001671   0.000522
                        CHANNELS 3 Zrotation Xrotation Yrotation
                        JOINT LeftWrist
                        {
                            OFFSET  28.869000   0.000037  -0.000114
                            CHANNELS 3 Zrotation Xrotation Yrotation
                            JOINT LeftFinger0
                            {
                                OFFSET   2.044650  -2.323450   3.252850
                                CHANNELS 3 Zrotation Xrotation Yrotation
                                JOINT LeftFinger01
                                {
                                    OFFSET   3.088140   0.000000   0.000000
                                    CHANNELS 3 Zrotation Xrotation Yrotation
                                    JOINT LeftFinger02
                                    {
                                        OFFSET   2.639460   0.000000   0.000000
                                        CHANNELS 3 Zrotation Xrotation Yrotation
                                        End Site
                                        {
                                            OFFSET   2.582190   0.000000   0.000000
                                        }
                                    }
                                }
                            }
                            JOINT LeftFinger1
                            {
                                OFFSET   8.364480   0.000000   3.252850
                                CHANNELS 3 Zrotation Xrotation Yrotation
                                JOINT LeftFinger11
                                {
                                    OFFSET   4.646930   0.000000   0.000000
                                    CHANNELS 3 Zrotation Xrotation Yrotation
                                    JOINT LeftFinger12
                                    {
                                        OFFSET   2.323470   0.000000   0.000000
                                        CHANNELS 3 Zrotation Xrotation Yrotation
                                        End Site
                                        {
                                            OFFSET   2.273050   0.000000   0.000000
                                        }
                                    }
                                }
                            }
                            JOINT LeftFinger2
                            {
                                OFFSET   8.364490   0.000016   1.078090
                                CHANNELS 3 Zrotation Xrotation Yrotation
                                JOINT LeftFinger21
                                {
                                    OFFSET   5.111620   0.000000   0.000000
                                    CHANNELS 3 Zrotation Xrotation Yrotation
                                    JOINT LeftFinger22
                                    {
                                        OFFSET   2.788150   0.000013   0.000000
                                        CHANNELS 3 Zrotation Xrotation Yrotation
                                        End Site
                                        {
                                            OFFSET   2.727660   0.000000   0.000000
                                        }
                                    }
                                }
                            }
                            JOINT LeftFinger3
                            {
                                OFFSET   7.899780   0.000016  -1.078090
                                CHANNELS 3 Zrotation Xrotation Yrotation
                                JOINT LeftFinger31
                                {
                                    OFFSET   4.646930   0.000000   0.000000
                                    CHANNELS 3 Zrotation Xrotation Yrotation
                                    JOINT LeftFinger32
                                    {
                                        OFFSET   2.323470   0.000000   0.000000
                                        CHANNELS 3 Zrotation Xrotation Yrotation
                                        End Site
                                        {
                                            OFFSET   2.273050   0.000000   0.000000
                                        }
                                    }
                                }
                            }
                            JOINT LeftFinger4
                            {
                                OFFSET   7.435080   0.000000  -3.252850
                                CHANNELS 3 Zrotation Xrotation Yrotation
                                JOINT LeftFinger41
                                {
                                    OFFSET   3.717550   0.000000   0.000000
                                    CHANNELS 3 Zrotation Xrotation Yrotation
                                    JOINT LeftFinger42
                                    {
                                        OFFSET   1.858760   0.000000   0.000000
                                        CHANNELS 3 Zrotation Xrotation Yrotation
                                        End Site
                                        {
                                            OFFSET   1.818440   0.000000   0.000000
                                        }
                                    }
                                }
                            }
                        }
                    }
                }
            }
            JOINT RightCollar
            {
                OFFSET  -3.911900  19.017000  -0.467064
                CHANNELS 3 Zrotation Xrotation Yrotation
                JOINT RightShoulder
                {
                    OFFSET -10.383700   0.000000   0.000000
                    CHANNELS 3 Zrotation Xrotation Yrotation
                    JOINT RightElbow
                    {
                        OFFSET -26.662100   0.001633   0.000260
                        CHANNELS 3 Zrotation Xrotation Yrotation
                        JOINT RightWrist
                        {
                            OFFSET -28.869000  -0.000045  -0.000080
                            CHANNELS 3 Zrotation Xrotation Yrotation
                            JOINT RightFinger0
                            {
                                OFFSET  -2.044660  -2.323490   3.252850
                                CHANNELS 3 Zrotation Xrotation Yrotation
                                JOINT RightFinger01
                                {
                                    OFFSET  -3.088140   0.000000   0.000000
                                    CHANNELS 3 Zrotation Xrotation Yrotation
                                    JOINT RightFinger02
                                    {
                                        OFFSET  -2.639450   0.000000   0.000000
                                        CHANNELS 3 Zrotation Xrotation Yrotation
                                        End Site
                                        {
                                            OFFSET  -2.582190   0.000000   0.000000
                                        }
                                    }
                                }
                            }
                            JOINT RightFinger1
                            {
                                OFFSET  -8.364480   0.000000   3.252850
                                CHANNELS 3 Zrotation Xrotation Yrotation
                                JOINT RightFinger11
                                {
                                    OFFSET  -4.646920   0.000000   0.000000
                                    CHANNELS 3 Zrotation Xrotation Yrotation
                                    JOINT RightFinger12
                                    {
                                        OFFSET  -2.323470   0.000000   0.000000
                                        CHANNELS 3 Zrotation Xrotation Yrotation
                                        End Site
                                        {
                                            OFFSET  -2.273050   0.000000   0.000000
                                        }
                                    }
                                }
                            }
                            JOINT RightFinger2
                            {
                                OFFSET  -8.364480   0.000000   1.078090
                                CHANNELS 3 Zrotation Xrotation Yrotation
                                JOINT RightFinger21
                                {
                                    OFFSET  -5.111610   0.000000   0.000000
                                    CHANNELS 3 Zrotation Xrotation Yrotation
                                    JOINT RightFinger22
                                    {
                                        OFFSET  -2.788160   0.000000   0.000000
                                        CHANNELS 3 Zrotation Xrotation Yrotation
                                        End Site
                                        {
                                            OFFSET  -2.727660   0.000000   0.000000
                                        }
                                    }
                                }
                            }
                            JOINT RightFinger3
                            {
                                OFFSET  -7.899780   0.000000  -1.078090
                                CHANNELS 3 Zrotation Xrotation Yrotation
                                JOINT RightFinger31
                                {
                                    OFFSET  -4.646930   0.000000   0.000000
                                    CHANNELS 3 Zrotation Xrotation Yrotation
                                    JOINT RightFinger32
                                    {
                                        OFFSET  -2.323470   0.000000   0.000000
                                        CHANNELS 3 Zrotation Xrotation Yrotation
                                        End Site
                                        {
                                            OFFSET  -2.273050   0.000000   0.000000
                                        }
                                    }
                                }
                            }
                            JOINT RightFinger4
                            {
                                OFFSET  -7.435090   0.000000  -3.252850
                                CHANNELS 3 Zrotation Xrotation Yrotation
                                JOINT RightFinger41
                                {
                                    OFFSET  -3.717550   0.000000   0.000000
                                    CHANNELS 3 Zrotation Xrotation Yrotation
                                    JOINT RightFinger42
                                    {
                                        OFFSET  -1.858760   0.000000   0.000000
                                        CHANNELS 3 Zrotation Xrotation Yrotation
                                        End Site
                                        {
                                            OFFSET  -1.818440   0.000000   0.000000
                                        }
                                    }
                                }
                            }
                        }
                    }
                }
            }
        }
    }
    JOINT LeftHip
    {
        OFFSET   9.782990   0.000000   0.000000
        CHANNELS 3 Zrotation Xrotation Yrotation
        JOINT LeftKnee
        {
            OFFSET  -0.000063 -41.789100   0.001657
            CHANNELS 3 Zrotation Xrotation Yrotation
            JOINT LeftAnkle
            {
                OFFSET   0.000078 -41.133200  -0.000113
                CHANNELS 3 Zrotation Xrotation Yrotation
                JOINT LeftToe
                {
                    OFFSET   0.000000  -6.358970  14.674500
                    CHANNELS 3 Zrotation Xrotation Yrotation
                    End Site
                    {
                        OFFSET   0.000000   0.000000   3.913200
                    }
                }
            }
        }
    }
    JOINT RightHip
    {
        OFFSET  -9.782990   0.000000   0.000000
        CHANNELS 3 Zrotation Xrotation Yrotation
        JOINT RightKnee
        {
            OFFSET   0.000053 -41.789200   0.000277
            CHANNELS 3 Zrotation Xrotation Yrotation
            JOINT RightAnkle
            {
                OFFSET   0.000030 -41.133200  -0.000150
                CHANNELS 3 Zrotation Xrotation Yrotation
                JOINT RightToe
                {
                    OFFSET   0.000000  -6.358960  14.674500
                    CHANNELS 3 Zrotation Xrotation Yrotation
                    End Site
                    {
                        OFFSET   0.000000   0.000000   3.913200
                    }
                }
            }
        }
    }
}
MOTION
Frames: 4
Frame Time:   0.016667
  0.743865  89.570800  -0.066391  -2.918650  -7.391830  -4.950950   0.297603   5.230510   0.702705   0.533829  10.464300   1.386720   1.005060  -1.264670   0.033270   1.653490  -2.562100   2.998110  -5.074320  -0.704060   2.241670 -72.309600  19.222100  -3.443410  -1.062680  -2.709210 -18.062000  10.675600  -5.083160   4.164880  42.367000  39.128900 -71.550300 -31.960300   0.000000   0.000104 -10.980200   0.001553   0.000000 -30.643900   5.231030  -8.740590 -25.399900   0.008201   0.000834 -17.779900   0.011870   0.000463 -28.295600  -1.482420   2.749530 -34.615300  -0.000708  -0.001172 -23.053800   0.011035  -0.000820 -27.854600  -1.460660   2.761140 -31.333500  -0.009924   0.000363 -20.868100   0.000568   0.000217 -28.760600  -1.503980   2.737800 -43.194800  -0.004773   0.000785 -28.767700  -0.005994  -0.009952  11.655000   1.499340   7.344770  67.827100   5.215910  -5.995070  -3.139060  -4.905980  17.028300 -10.146700  -0.619078   1.009650 -39.441400  35.242400  65.329900  33.250500   0.001477  -0.000862  11.625300   0.003971   0.003990  34.291300   9.304150  13.336700  28.942900  -0.002718  -0.006220  20.260000   0.001548   0.007180  32.665800   0.009923   0.015465  48.998800   0.001230  -0.001923  32.633100   0.005430  -0.001516  35.047300   0.010549   0.015043  52.573100   0.009947  -0.005671  35.012200   0.004604   0.003436  46.648600  -3.250130  -3.062760  70.107500   0.000364   0.002330  46.688400   0.002944   0.002489   2.392760  10.202000   5.812710   0.746562  -0.000072   3.186290  -1.535980  -3.316970   0.726304  -0.000000   0.000000   0.000000   1.675860   8.726570   1.546920  -0.299849   1.586340  -6.507960  -0.144641  -3.370290   0.066915   0.000000   0.000000   0.000000
  0.738872  89.570700  -0.072209  -2.917710  -7.397040  -4.941970   0.296202   5.235810   0.702981   0.530942  10.474900   1.387410   1.016550  -1.252900   0.033266   1.672340  -2.538240   2.983670  -5.074150  -0.711698   2.241350 -72.315100  19.231700  -3.445180  -1.066530  -2.711130 -18.062200  10.675800  -5.074630   4.172660  42.385000  39.124600 -71.529400 -31.942000  -0.000000   0.000052 -10.971000   0.001555   0.000000 -30.623700   5.231100  -8.746150 -25.383600   0.008201   0.000834 -17.768500   0.011869   0.000466 -28.296100  -1.476720   2.739280 -34.587700  -0.000711  -0.001168 -23.035400   0.011038  -0.000819 -27.853400  -1.455000   2.750870 -31.310100  -0.009929   0.000366 -20.852500   0.000564   0.000218 -28.745800  -1.497590   2.727930 -43.172200  -0.004774   0.000783 -28.752600  -0.005994  -0.009952  11.675100   1.461170   7.362160  67.802400   5.237550  -6.025310  -3.147330  -4.897540  17.041500 -10.127100  -0.619478   1.034450 -39.445000  35.242700  65.330400  33.239300   0.001477  -0.000860  11.619700   0.003967   0.003990  34.285800   9.314860  13.353700  28.942900  -0.002718  -0.006220  20.260000   0.001549   0.007178  32.662400   0.020570   0.032068  48.993700   0.001232  -0.001927  32.629700   0.005427  -0.001520  35.047600   0.021877   0.031190  52.573200   0.009949  -0.005671  35.012500   0.004600   0.003432  46.647600  -3.250340  -3.062920  70.104000   0.000358   0.002326  46.687500   0.002944   0.002489   2.399130  10.203300   5.812880   0.746604   0.000243   3.186120  -1.541630  -3.310590   0.716447  -0.000000   0.000000   0.000000   1.683730   8.729330   1.546930  -0.300009   1.584950  -6.508190  -0.145037  -3.370680   0.059531   0.000000   0.000000  -0.000000
  0.730571  89.570600  -0.082614  -2.916740  -7.408080  -4.928930   0.293931   5.246970   0.703264   0.526184  10.497200   1.388150   1.034770  -1.235950   0.033256   1.702260  -2.503790   2.963920  -5.073900  -0.723260   2.241040 -72.324300  19.244700  -3.451000  -1.074000  -2.715900 -18.062500  10.676600  -5.061080   4.181270  42.402000  39.122600 -71.506900 -31.923700   0.000000   0.000000 -10.961800   0.001558  -0.000000 -30.603300   5.231140  -8.753450 -25.367300   0.008203   0.000836 -17.757100   0.011868   0.000472 -28.296700  -1.471010   2.729030 -34.560200  -0.000720  -0.001159 -23.017100   0.011048  -0.000817 -27.851200  -1.449340   2.740600 -31.286600  -0.009944   0.000374 -20.836900   0.000554   0.000221 -28.729400  -1.491200   2.718050 -43.147200  -0.004777   0.000780 -28.736000  -0.005993  -0.009950  11.709200   1.396360   7.391850  67.747300   5.278200  -6.062820  -3.164370  -4.874890  17.068200 -10.091000  -0.619874   1.077340 -39.453100  35.244700  65.333400  33.219900   0.001472  -0.000854  11.610000   0.003956   0.003987  34.277800   9.330140  13.379800  28.942900  -0.002718  -0.006219  20.260000   0.001549   0.007176  32.654800   0.037428   0.058368  48.982300   0.001239  -0.001938  32.622200   0.005420  -0.001530  35.047900   0.039819   0.056765  52.573300   0.009951  -0.005671  35.012800   0.004588   0.003421  46.644700  -3.250550  -3.063130  70.097100   0.000343   0.002314  46.684700   0.002943   0.002490   2.410180  10.204600   5.813040   0.746898   0.002443   3.185740  -1.550700  -3.304220   0.701899   0.000000   0.000000  -0.000000   1.696070   8.735210   1.546950  -0.300245   1.582900  -6.508420  -0.145598  -3.371060   0.049361   0.000000   0.000000   0.000000
  0.724149  89.570600  -0.092602  -2.918270  -7.422130  -4.921650   0.292351   5.261150   0.701748   0.522964  10.525500   1.385200   1.047740  -1.228490   0.033241   1.723630  -2.488360   2.957130  -5.073830  -0.730036   2.242620 -72.331200  19.249100  -3.462910  -1.082440  -2.725360 -18.062900  10.683600  -5.052440   4.182140  42.407000  39.138000 -71.526700 -31.927100   0.000000  -0.000000 -10.963500   0.001549  -0.000000 -30.605500   5.230240  -8.755470 -25.368900   0.008214   0.000853 -17.758200   0.011862   0.000479 -28.296700  -1.471140   2.729270 -34.561400  -0.000732  -0.001147 -23.017900   0.011065  -0.000809 -27.849300  -1.449470   2.740840 -31.288100  -0.009973   0.000384 -20.837900   0.000537   0.000231 -28.727800  -1.491320   2.718310 -43.144900  -0.004777   0.000778 -28.734500  -0.005994  -0.009948  11.739600   1.341260   7.417530  67.671300   5.317160  -6.071480  -3.179280  -4.844260  17.097900 -10.056000  -0.618847   1.116880 -39.490500  35.289600  65.371700  33.203100   0.001447  -0.000841  11.601600   0.003939   0.003974  34.266100   9.335210  13.393200  28.935200  -0.002722  -0.006224  20.254600   0.001548   0.007178  32.645800   0.048885   0.076271  48.968800   0.001252  -0.001954  32.613200   0.005407  -0.001541  35.047800   0.052033   0.074171  52.573000   0.009954  -0.005673  35.012700   0.004570   0.003404  46.640500  -3.250490  -3.063230  70.090600   0.000320   0.002296  46.680600   0.002942   0.002490   2.420200  10.195100   5.812770   0.747102   0.042449   3.185110  -1.557230  -3.319710   0.694337   0.000000   0.000000  -0.000000   1.703920   8.742580   1.546640  -0.300339   1.581640  -6.508360  -0.150202  -3.370430   0.045597   0.000000   0.000000  -0.000000
